/* XPM */
static char *_1768e024ac946ddcff976cfadf46299GlneK4YbPY9KHr9v[] = {
/* columns rows colors chars-per-pixel */
"32 32 8 1 ",
"  c None",
". c #265C42",
"X c #A22633",
"o c #E43B44",
"O c #F6757A",
"+ c #3E8948",
"@ c #E4A672",
"# c #EAD4AA",
/* pixels */
"                                ",
"                                ",
"                                ",
"             ..   +.            ",
"             +.. +..            ",
"         XXXXX+....ooooo        ",
"        XXXX++++.....oooo       ",
"       XXXX++++++.....o#oo      ",
"      XXXXXXXXXX++.XXoooooo     ",
"      XX@XXXXXXXX++oooooooo     ",
"      XX@XX@XXXXooooOO#Oooo     ",
"      XXXXX@XXXX#ooOOO#OOoo     ",
"      XXXXXXXXoX#oo#OOOOO#o     ",
"      XXXXXXXXoXooo#OOOOO#o     ",
"      XXX@XXXXXXoXoOOO#OOoo     ",
"      XXXXXXXXXXooooOOOOooo     ",
"      XXXXXXXXXoXoooooooooo     ",
"       XXXX@XXXoXooXoo#ooo      ",
"        XXX@XXXXoXoooo#oo       ",
"         XXXXXoXoXoooooo        ",
"          XXXXXXooooooo         ",
"           XXXXXo#oooo          ",
"            XX@Xo#ooo           ",
"             XXXoooo            ",
"              XXooo             ",
"                                ",
"                                ",
"                                ",
"                                ",
"                                ",
"                                ",
"                                "
};
