/* XPM */
static char *_c45c81bce814ebce696a40faf02dfd8UYdbTmJzxaDYaaeH[] = {
/* columns rows colors chars-per-pixel */
"32 32 17 1 ",
"  c None",
". c #543B1F",
"X c #6C4C27",
"o c #7B5B35",
"O c #746C68",
"+ c #8B6B44",
"@ c #9E784D",
"# c #AB8952",
"$ c #B28657",
"% c #BA9758",
"& c #94887B",
"* c #C9A65F",
"= c #D6B676",
"- c #86838C",
"; c #B4A58F",
": c #C5B496",
"> c #D4C1A2",
/* pixels */
"                                ",
"                                ",
"      oooo              oooo    ",
"     X%*%#.            X%*%#.   ",
"     X==*%.            X==*%.   ",
"     X$o@o.            X$o@o.   ",
"     X@o+o.            X@o+o.   ",
"  oooooooooooooooooooooooooooooX",
"  X=======*==*==**=*%*%%*%%*%%#X",
"  X$$$$$$$$$$$$$$$@$$$@$$@$@+@+.",
"  X$@>>:>::@:::>:>>>:>>:>::>>@@.",
"  X@+>->>>>>>>>>>>>>>>>>>>>-:+o.",
"  .oo:>>&>;&&;&>&&&;&>;&&&>:ooX.",
"  X$@@>>&O&;;OO>;&>&;&O;OO>>:@@.",
"  X$@@:>>>>>>>>>>>>>>>>>>>>>>@@.",
"  X$@:>>&>&;O;;&&>;&&;>;>&>:@++.",
"  .Xo>>>&&;&&O&&O&&O;&>&;&>:XoX.",
"  X$@:>>>>>>>>>>>>>>>>>>>>>>@@+.",
"  X$@>>>&;O&&>&;&>&;O>&;&;>>>@@.",
"  X$@>>>&O;&;>&&O&&&O>&&>&>>:++.",
"  .o+:>>>>>>>>>>>>>>>>>>>>>:XXX.",
"  X$@@:->>&>;&&O&;&&>:>>>:->@@@.",
"  X$@::::::::::::::::@@::@:::@+.",
"  X+o+++o++o+++++o+++o+oo+++o+o.",
"  ..............................",
"     ......            ......   ",
"     XoXoX.            XoXoX.   ",
"     X+ooo.            X+ooo.   ",
"     X+Xoo.            X+Xoo.   ",
"     XoXoo.            XoXoo.   ",
"     X+Xoo.            X+Xoo.   ",
"     XX.oX.            XX.oX.   "
};
